<?xml version="1.0" encoding="utf-8"?>
<!-- Generator: Adobe Illustrator 15.0.1, SVG Export Plug-In . SVG Version: 6.00 Build 0)  -->
<!DOCTYPE svg PUBLIC "-//W3C//DTD SVG 1.1//EN" "http://www.w3.org/Graphics/SVG/1.1/DTD/svg11.dtd">
<svg version="1.1" id="Layer_1" xmlns="http://www.w3.org/2000/svg" xmlns:xlink="http://www.w3.org/1999/xlink" x="0px" y="0px"
	 width="68px" height="68px" viewBox="0 0 68 68" enable-background="new 0 0 68 68" xml:space="preserve">
<g id="Selected_Items" display="none">
	<rect x="4.75" y="56.45" display="inline" fill="none" width="67.5" height="14.8"/>
	
		<text transform="matrix(1 0 0 1 6.75 64.4531)" display="inline" fill="#4E9F00" font-family="'ErbarURW-BoldItalic'" font-size="9">Frugtplukkerne</text>
</g>
<g id="Selected_Items_copy" display="none">
	<rect x="4.75" y="56.45" display="inline" fill="none" width="67.5" height="14.8"/>
	
		<text transform="matrix(1 0 0 1 6.75 64.4531)" display="inline" opacity="0.7" fill="#DF2800" enable-background="new    " font-family="'ErbarURW-BoldItalic'" font-size="9">Frugtplukkerne</text>
</g>
<g id="outline_1_" display="none">
	<rect x="4.75" y="56.45" display="inline" fill="none" width="67.5" height="14.8"/>
	
		<text transform="matrix(1 0 0 1 6.75 64.4531)" display="inline" fill="#4E9F00" font-family="'ErbarURW-BoldItalic'" font-size="9">Frugtplukkerne</text>
</g>
<g id="outline_Frugtplukkerne">
	<g>
		<path fill="#333333" d="M9.211,62.04H7.365l-0.207,2.413H5.654l0.522-6.005h3.331l-0.108,1.261H7.572L7.474,60.78h1.854
			L9.211,62.04z"/>
		<path fill="#333333" d="M9.983,60.555h1.359l0.019,0.279c0.288-0.279,0.486-0.369,0.828-0.369c0.009,0,0.126,0.01,0.288,0.027
			c0.018,0.009,0.081,0.009,0.162,0.018l-0.108,1.172c-0.854-0.037-1.233,0.242-1.305,0.953l-0.153,1.818H9.642L9.983,60.555z"/>
		<path fill="#333333" d="M16.582,64.453h-1.378l-0.027-0.271c-0.261,0.308-0.396,0.36-0.837,0.36c-0.864,0-1.404-0.485-1.404-1.271
			l0.009-0.261l0.216-2.458h1.432l-0.188,2.197c-0.01,0.045-0.01,0.09-0.01,0.126c0,0.297,0.117,0.433,0.379,0.433
			c0.297,0,0.504-0.252,0.54-0.658l0.188-2.098h1.423L16.582,64.453z"/>
		<path fill="#333333" d="M18.11,65.021c0.576,0.144,0.855,0.188,1.144,0.188c0.621,0,0.883-0.207,0.937-0.756l0.027-0.342
			c-0.369,0.342-0.576,0.423-1.072,0.423c-1.035,0-1.809-0.828-1.809-1.937c0-1.216,0.891-2.143,2.062-2.143
			c0.387,0,0.675,0.062,1.116,0.261l0.018-0.161h1.432l-0.342,3.897c-0.117,0.973-0.298,1.377-0.748,1.647
			c-0.359,0.215-0.999,0.368-1.575,0.368c-0.414,0-0.765-0.062-1.341-0.243L18.11,65.021z M18.696,62.57
			c0,0.451,0.314,0.748,0.783,0.748c0.53,0,0.899-0.359,0.899-0.873c0-0.45-0.306-0.721-0.801-0.721
			C19.074,61.727,18.696,62.085,18.696,62.57z"/>
		<path fill="#333333" d="M22.628,61.727h-0.405l0.1-1.172h0.414l0.099-1.143L24.32,58.7l-0.161,1.854h0.378l-0.108,1.17H24.06
			l-0.243,2.729h-1.422L22.628,61.727z"/>
		<path fill="#333333" d="M25.913,66.309h-1.431l0.504-5.754h1.432l-0.019,0.227c0.405-0.262,0.595-0.324,1-0.324
			c0.675,0,1.17,0.234,1.503,0.711c0.243,0.342,0.369,0.766,0.369,1.197c0,1.197-0.945,2.179-2.106,2.179
			c-0.378,0-0.604-0.062-1.071-0.288L25.913,66.309z M26.282,62.518c0,0.45,0.298,0.756,0.729,0.756c0.486,0,0.9-0.396,0.9-0.863
			c0-0.45-0.315-0.783-0.747-0.783C26.661,61.626,26.282,62.014,26.282,62.518z"/>
		<path fill="#333333" d="M30.107,58.448h1.431l-0.521,6.005h-1.432L30.107,58.448z"/>
		<path fill="#333333" d="M35.525,64.453h-1.377l-0.027-0.271c-0.261,0.308-0.396,0.36-0.837,0.36c-0.864,0-1.404-0.485-1.404-1.271
			l0.009-0.261l0.216-2.458h1.432l-0.188,2.197c-0.01,0.045-0.01,0.09-0.01,0.126c0,0.297,0.117,0.433,0.379,0.433
			c0.297,0,0.504-0.252,0.54-0.658l0.188-2.098h1.423L35.525,64.453z"/>
		<path fill="#333333" d="M37.768,63.49l-0.082,0.963h-1.432l0.521-6.005h1.432L37.93,61.6l1.024-1.045h1.954l-1.477,1.379
			l0.918,2.521h-1.566l-0.521-1.423L37.768,63.49z"/>
		<path fill="#333333" d="M42.41,63.49l-0.081,0.963h-1.433l0.522-6.005h1.433L42.572,61.6l1.025-1.045h1.953l-1.476,1.379
			l0.918,2.521h-1.565l-0.523-1.423L42.41,63.49z"/>
		<path fill="#333333" d="M49.764,63.886c-0.576,0.441-1.232,0.657-2.007,0.657c-1.252,0-2.125-0.818-2.125-1.998
			c0-1.216,0.918-2.098,2.188-2.098c1.09,0,1.594,0.432,1.99,1.701l-2.559,1.106c0.198,0.198,0.344,0.271,0.576,0.271
			c0.46,0,0.928-0.188,1.521-0.631L49.764,63.886z M48.359,61.941c-0.152-0.36-0.314-0.479-0.621-0.479
			c-0.469,0-0.828,0.352-0.828,0.811c0,0.063,0.009,0.181,0.035,0.297L48.359,61.941z"/>
		<path fill="#333333" d="M50.637,60.555h1.358l0.019,0.279c0.289-0.279,0.486-0.369,0.828-0.369c0.01,0,0.127,0.01,0.288,0.027
			c0.019,0.009,0.081,0.009,0.162,0.018l-0.108,1.172c-0.854-0.037-1.232,0.242-1.305,0.953l-0.152,1.818h-1.433L50.637,60.555z"/>
		<path fill="#333333" d="M55.92,64.453l0.197-2.241c0.01-0.046,0.01-0.091,0.01-0.108c0-0.252-0.152-0.387-0.414-0.387
			c-0.334,0-0.576,0.217-0.604,0.521l-0.198,2.215h-1.44l0.342-3.898h1.405l0.009,0.297c0.314-0.287,0.541-0.387,0.937-0.387
			c0.415,0,0.819,0.171,1.081,0.441c0.216,0.242,0.314,0.521,0.314,0.927c0,0.146-0.01,0.271-0.019,0.405l-0.188,2.215H55.92z"/>
		<path fill="#333333" d="M62.301,63.886c-0.576,0.441-1.232,0.657-2.008,0.657c-1.251,0-2.124-0.818-2.124-1.998
			c0-1.216,0.918-2.098,2.188-2.098c1.088,0,1.594,0.432,1.988,1.701l-2.557,1.106c0.197,0.198,0.342,0.271,0.576,0.271
			c0.459,0,0.928-0.188,1.521-0.631L62.301,63.886z M60.896,61.941c-0.153-0.36-0.315-0.479-0.621-0.479
			c-0.469,0-0.828,0.352-0.828,0.811c0,0.063,0.009,0.181,0.035,0.297L60.896,61.941z"/>
	</g>
</g>
<g id="Layer_4_copy" display="none">
	<path display="inline" fill="none" stroke="#4E9F00" stroke-width="4" d="M14.9,3.3c2.567,1.467,4.417,3.767,5.55,6.9
		c1.133,3.1,1.533,6.149,1.2,10.55l0.65-0.25c-0.1-5.733,1.417-10.116,4.55-13.15c1-1,2.2-1.883,3.6-2.649
		c1.333-0.633,2.15-1.05,2.45-1.25"/>
</g>
<g id="Layer_4" display="none">
	<path display="inline" opacity="0.7" fill="none" stroke="#DF2800" stroke-width="4" enable-background="new    " d="M14.9,3.3
		c2.567,1.467,4.417,3.767,5.55,6.9c1.133,3.1,1.533,6.149,1.2,10.55l0.65-0.25c-0.1-5.733,1.417-10.116,4.55-13.15
		c1-1,2.2-1.883,3.6-2.649c1.333-0.633,2.15-1.05,2.45-1.25"/>
</g>
<g id="stilk">
</g>
<g id="apple">
</g>
<g id="hand1" display="none">
	<g display="inline">
		<path fill="none" stroke="#4E9F00" stroke-width="4" d="M56.85,23.5c-0.293-9.523-7.6-15.206-16.55-14.65"/>
		<path fill="none" stroke="#4E9F00" stroke-width="4" d="M54.486,6.191C61.456,9.324,65,18,64.4,27.7
			C63.402,43.829,48,59.625,35.05,53.5"/>
		<path fill="none" stroke="#4E9F00" stroke-width="4" d="M54.486,6.191"/>
		<path fill="none" stroke="#4E9F00" stroke-width="4" d="M44.45,5.3"/>
		<path fill="none" stroke="#4E9F00" stroke-width="4" d="M50.25,26.9c-0.525-9.65-6.502-13.029-15.95-11.8"/>
	</g>
</g>
<g id="hand2">
	<g>
		<path fill="none" stroke="#DF2800" stroke-width="4" d="M14.553,3.3c2.567,1.467,4.417,3.767,5.55,6.9
			c1.133,3.1,1.591,6.149,1.257,10.55l0.592-0.25c-0.1-5.733,1.417-10.116,4.55-13.15c1-1,2.2-1.883,3.6-2.649
			c1.333-0.633,2.15-1.05,2.45-1.25"/>
		<path fill="none" stroke="#DF2800" stroke-width="4" d="M27.354,44.65c-1.773,12.391-18.104,8.961-21.45-0.977
			c-4.372-12.981,3.334-35.34,16.8-18.924"/>
		<path fill="none" stroke="#DF2800" stroke-width="4" d="M24.454,49.333c0.849,0.531,2.195,0.571,3.156,0.688
			c1.308,0.16,2.623,0.121,3.935,0.021c2.295-0.173,4.689-0.598,6.705-1.768c3.959-2.301,5.051-7.099,5.146-11.356
			c0.125-5.561-1.861-10.856-6.002-14.654c-1.787-1.64-3.85-2.667-6.308-2.504c-2.67,0.177-5.547,0.899-7.899,2.194
			c-0.434,0.238-0.853,0.509-1.233,0.827"/>
		<g>
			<path fill="none" stroke="#4E9F00" stroke-width="4" d="M55.754,23.568c-0.293-9.523-7.6-15.206-16.55-14.65"/>
			<path fill="none" stroke="#4E9F00" stroke-width="4" d="M53.391,6.259c6.971,3.134,10.207,11.796,9.914,21.51
				c-0.482,16.049-14.643,25.633-29.351,26.799"/>
			<path fill="none" stroke="#4E9F00" stroke-width="4" d="M53.391,6.259"/>
			<path fill="none" stroke="#4E9F00" stroke-width="4" d="M43.354,5.367"/>
			<path fill="none" stroke="#4E9F00" stroke-width="4" d="M49.154,26.969c-0.525-9.65-6.502-13.029-15.95-11.801"/>
		</g>
	</g>
</g>
<g id="Layer_7" display="none">
</g>
</svg>
